<svg xmlns="http://www.w3.org/2000/svg" width="2000" height="1500" fill="none"><path fill="#fff" d="M397.599 902.5c-2-1.1-5.1-1.4-7.5-.5l-153 56.7c-.4.1-.7.3-1 .5-1.9 1.1-2.3 2.9-.8 4.3l153.6 138.7c.2.2.5.4.8.6 2 1.1 5.1 1.4 7.5.5l153-56.7c.4-.1.7-.3 1-.5 1.9-1.1 2.3-2.9.8-4.3l-153.6-138.7c-.2-.2-.5-.4-.8-.6Z"/><path fill="#636363" d="M388.9 1102.2 235.3 963.5c-1.5-1.4-1.2-3.2.8-4.3.3-.2.6-.3 1-.5l153-56.7c2.4-.9 5.5-.7 7.5.5.3.2.6.4.8.6L552 1041.8c1.5 1.4 1.2 3.2-.8 4.3-.3.2-.6.3-1 .5l-153 56.7c-2.4.9-5.5.7-7.5-.5-.3-.1-.5-.3-.8-.6ZM399 901.7c-2.6-1.5-6.7-1.8-10-.6l-153 56.7c-.5.2-1 .4-1.4.6-2.6 1.5-3.1 3.9-1 5.8l153.6 138.7c.3.3.7.6 1.1.8 2.6 1.5 6.7 1.8 10 .6l153-56.7c.5-.2 1-.4 1.4-.6 2.6-1.5 3.1-3.9 1-5.8L400.1 902.5c-.3-.3-.7-.6-1.1-.8Zm-180.9 64.6c-.3-.2-.8-.2-1.3-.1l-9.6 3.6-.2.1c-.3.2-.4.5-.1.7l86.6 78.2.1.1c.3.2.8.2 1.2.1l9.6-3.6.2-.1c.3-.2.4-.5.1-.7l-86.6-78.2v-.1Z"/><path fill="#636363" d="M219.5 965.5c-1-.6-2.5-.7-3.7-.2l-9.6 3.6c-.2.1-.4.1-.5.2-1 .6-1.2 1.5-.4 2.2l86.6 78.2.8-.3.8-.3-86.5-78.3c-.3-.2-.2-.5.1-.7l.2-.1 9.6-3.6c.4-.1.9-.1 1.3.1l.1.1 86.6 78.2c.3.2.2.5-.1.7l-.2.1-9.6 3.6c-.4.2-.9.1-1.2-.1l-.1-.1-.8.3-.8.3c.1.1.3.2.4.3 1 .6 2.5.7 3.7.2l9.6-3.6c.2-.1.4-.2.5-.2 1-.6 1.2-1.5.4-2.2L220 965.8c-.2-.1-.3-.2-.5-.3Z"/><path fill="#fff" d="M199.799 973.1c-.3-.2-.9-.2-1.2-.1l-9.6 3.6-.2.1c-.3.2-.4.5-.1.7l55.8 50.4.1.1c.3.2.8.2 1.2.1l9.6-3.6.2-.1c.3-.2.4-.5.1-.7l-55.8-50.4-.1-.1Z"/><path fill="#636363" d="M244.399 1027.8 188.6 977.4c-.3-.2-.201-.5.099-.7l.2-.1 9.6-3.6c.4-.1.9-.1 1.2.1l.101.1 55.8 50.4c.3.2.199.5-.101.7l-.2.1-9.6 3.6c-.4.1-.9.1-1.2-.1l-.1-.1Zm-43.2-55.5c-1-.6-2.5-.7-3.7-.2l-9.6 3.6c-.2.1-.4.1-.5.2-1 .6-1.2 1.5-.4 2.2l55.8 50.4c.1.1.3.2.4.3 1 .6 2.5.7 3.7.2l9.6-3.6c.2-.1.4-.1.5-.2 1-.6 1.2-1.5.4-2.2L201.6 972.6c-.1-.1-.301-.2-.401-.3Zm158.7 122.1c-1-.6-2.5-.7-3.7-.2l-24.6 9.1c-.2.1-.4.2-.5.2-1 .6-1.2 1.5-.4 2.2l15.8 14.3c.1.1.3.2.4.3 1 .6 2.5.7 3.7.2l24.6-9.1c.2-.1.4-.2.5-.2 1-.6 1.2-1.5.4-2.2l-15.8-14.3c-.1-.1-.2-.2-.4-.3Z"/><path fill="#636363" d="M361.299 1093.6c-1.6-.9-4.2-1.1-6.2-.4l-24.6 9.1c-.3.1-.6.2-.9.4-1.6.9-1.9 2.4-.7 3.6l15.8 14.3c.2.2.4.3.7.5 1.6.9 4.2 1.1 6.2.4l24.6-9.1c.3-.1.6-.3.8-.4 1.6-.9 2-2.4.7-3.6l-.8.3-.8.3c.8.7.6 1.6-.4 2.2-.1.1-.3.2-.5.2l-24.6 9.1c-1.2.4-2.8.3-3.7-.2-.2-.1-.3-.2-.4-.3l-15.8-14.3c-.8-.7-.6-1.6.4-2.2.1-.1.3-.2.5-.2l24.6-9.1c1.2-.4 2.8-.3 3.7.2.2.1.3.2.4.3l15.8 14.3.8-.3.8-.3-15.8-14.3c-.1-.2-.3-.3-.6-.5ZM1159.3 739c-2.4-1.4-6.1-1.4-8.5 0l-129.2 73.9c-2.3 1.3-2.3 3.5 0 4.9l199.9 117.3c2.3 1.3 6.1 1.4 8.4 0l129.2-73.9c2.3-1.3 2.3-3.5 0-4.9L1159.3 739Z"/><path fill="#636363" d="m1159.3 739 199.9 117.3c2.3 1.4 2.3 3.5 0 4.9L1230 935.1c-2.3 1.3-6.1 1.3-8.4 0l-199.9-117.3c-2.3-1.4-2.3-3.5 0-4.9l129.2-73.9c2.2-1.4 6-1.4 8.4 0Zm1.4-.8c-3.2-1.9-8.2-1.9-11.4-.1L1020.1 812h-.1c-3.1 1.8-3.1 4.7 0 6.5l199.9 117.3c3.1 1.8 8.1 1.8 11.3 0l129.2-73.9c3.1-1.8 3.1-4.7 0-6.5l-199.7-117.2Z"/><path fill="#fff" d="M1005.9 822.6c-.4-.2-1-.2-1.4 0l-8.1 4.6c-.4.2-.4.6 0 .8l112.7 66.1c.4.2 1 .2 1.4 0l8.1-4.6c.4-.2.4-.6 0-.8l-112.7-66.1Z"/><path fill="#636363" d="m1109 894.2-112.7-66.1c-.4-.2-.4-.6 0-.8l8.1-4.6c.4-.2 1-.2 1.4 0l112.7 66.1c.4.2.4.6 0 .8l-8.1 4.6c-.3.3-1 .3-1.4 0Zm-101.7-72.3c-1.2-.7-3.1-.7-4.2 0l-8.1 4.6c-1.2.7-1.2 1.8 0 2.5l112.7 66.1h.2c1.2.6 3 .6 4.1 0l8.1-4.6c1.1-.7 1.1-1.8 0-2.4l-112.8-66.2Zm-16.9 9.6c-.4-.2-1-.2-1.4 0l-8.1 4.6c-.4.2-.4.6 0 .8l72.6 42.6c.4.2 1 .2 1.4 0l8.1-4.6c.4-.2.4-.6 0-.8l-72.6-42.6Z"/><path fill="#636363" d="m990.4 831.5 72.6 42.6c.4.2.4.6 0 .8l-8.1 4.6c-.4.2-1 .2-1.4 0L980.9 837c-.4-.2-.4-.6 0-.8l8.1-4.6c.4-.3 1-.3 1.4-.1Zm1.4-.8c-1.2-.7-3.1-.7-4.2 0l-8.1 4.6c-1.2.7-1.2 1.8 0 2.5l72.6 42.6c1.2.7 3 .7 4.2 0l8.1-4.6c1.2-.7 1.2-1.8 0-2.5l-72.6-42.6Z"/><path fill="#fff" d="m1211.5 943.2-20.6-12.1c-1.2-.7-3.1-.7-4.2 0l-20.8 11.9c-1.2.7-1.2 1.8 0 2.4l20.6 12.1c1.2.7 3.1.7 4.2 0l20.8-11.9c1.2-.7 1.2-1.8 0-2.4Z"/><path fill="#636363" d="M1211.5 943.2c1.2.7 1.2 1.8 0 2.4l-20.8 11.9c-1.2.7-3.1.7-4.2 0l-20.6-12.1c-1.2-.7-1.2-1.8 0-2.4l20.8-11.9c1.2-.7 3.1-.7 4.2 0l20.6 12.1Zm-19.2-12.8c-2-1.2-5.1-1.2-7.1 0l-20.8 11.9c-1.9 1.1-1.9 2.9 0 4.1l20.6 12.1c1.9 1.1 5.1 1.1 7 0l20.8-11.9c1.9-1.1 1.9-2.9 0-4.1l-20.5-12.1Z"/><path fill="#fff" d="M1691.5 732.5c-.2-.1-.3-.2-.5-.3l-222.4-102.8c-2.4-1.1-5.9-1-8 .3-.2.1-.3.2-.4.3L1347 712.2c-1.9 1.4-1.7 3.4.5 4.6.2.1.3.2.5.3l222.4 102.8c2.4 1.1 5.9 1 8-.3.2-.1.3-.2.4-.3L1692 737c1.8-1.3 1.6-3.3-.5-4.5Z"/><path fill="#636363" d="M1347.5 716.8c-2.1-1.2-2.4-3.2-.5-4.6l113.2-82.3c.1-.1.3-.2.4-.3 2.1-1.2 5.6-1.4 8-.3L1691 732.2c.2.1.3.2.5.3 2.1 1.2 2.4 3.2.5 4.6l-113.2 82.3c-.1.1-.3.2-.4.3-2.1 1.2-5.6 1.4-8 .3L1348 717.1c-.2-.1-.4-.2-.5-.3Zm345.4 14.8c-.2-.1-.4-.2-.7-.3l-222.4-102.8c-3.2-1.5-7.8-1.3-10.7.3-.2.1-.4.2-.6.4l-113.2 82.3c-2.6 1.9-2.2 4.5.6 6.2 0 0 .1 0 .1.1l.6.3L1569 820.9c3.2 1.5 7.8 1.3 10.7-.3.2-.1.4-.2.6-.4l113.2-82.3c2.6-2 2.2-4.6-.6-6.3ZM1458.8 781l-125.4-58c-.4-.2-1-.2-1.3 0h-.1l-7.1 5.2c-.3.2-.3.6.1.8h.1l125.3 57.9c.4.2 1 .2 1.3 0h.1l7.1-5.2c.3-.2.3-.5-.1-.7Z"/><path fill="#636363" d="M1325 729c-.4-.2-.4-.5-.1-.8l7.1-5.2h.1c.4-.2.9-.2 1.3 0l125.3 57.9h.1c.4.2.4.5.1.8l-7.1 5.2h-.1c-.3.2-.9.2-1.3 0L1325 729Zm135.2 51.2c-.1 0-.2-.1-.2-.1l-125.3-57.9c-1.2-.6-2.9-.5-4 .1-.1 0-.2.1-.2.1l-7.1 5.2c-1 .7-.8 1.7.2 2.3.1 0 .2.1.2.1l125.3 57.9c1.2.6 2.9.5 4-.1.1 0 .1-.1.2-.1l7.1-5.2c1-.7.9-1.7-.2-2.3Z"/><path fill="#fff" d="m1400.7 770.2-80.8-37.4c-.4-.2-1-.2-1.3 0l-.1.1-7.1 5.2c-.3.2-.3.6.1.8h.1l80.8 37.3c.4.2 1 .2 1.3 0h.1l7.1-5.2c.2-.2.1-.6-.2-.8Z"/><path fill="#636363" d="M1311.4 738.9c-.4-.2-.4-.5-.1-.8l7.1-5.2.1-.1c.4-.2.9-.2 1.3 0l80.8 37.3h.1c.4.2.4.5.1.8l-7.1 5.2h-.1c-.3.2-.9.2-1.3 0l-80.9-37.2Zm90.6 30.5c-.1 0-.1-.1-.2-.1L1321 732c-1.2-.6-2.9-.5-4 .1-.1 0-.2.1-.2.1l-7.1 5.2c-1 .7-.8 1.7.2 2.3.1 0 .2.1.2.1l80.8 37.3c1.2.6 2.9.5 4-.1.1 0 .1-.1.2-.1l7.1-5.2c1.1-.7 1-1.7-.2-2.3Zm160.3 59.4c-.1 0-.2-.1-.2-.1l-22.9-10.6c-1.2-.6-2.9-.5-4 .1-.1 0-.2.1-.2.1l-18.2 13.2c-1 .7-.8 1.7.2 2.3.1 0 .2.1.3.1l22.9 10.6c1.2.6 2.9.5 4-.1.1 0 .1-.1.2-.1l18.2-13.2c.9-.7.8-1.7-.3-2.3Z"/><path fill="#636363" d="M1562.1 828.7c.1 0 .2.1.2.1 1.1.6 1.2 1.6.2 2.3l-18.2 13.2c-.1.1-.1.1-.2.1-1.1.6-2.8.7-4 .1l-22.9-10.6c-.1 0-.2-.1-.3-.1-1.1-.6-1.2-1.6-.2-2.3l18.2-13.2c.1 0 .1-.1.2-.1 1.1-.6 2.8-.7 4-.1l23 10.6Zm1.6-.7c-.1-.1-.3-.1-.4-.2l-22.9-10.6c-2-.9-4.9-.8-6.7.2-.1.1-.3.2-.4.2l-18.2 13.2c-1.6 1.2-1.4 2.8.4 3.9.1.1.3.1.4.2l22.9 10.6c2 .9 4.9.8 6.7-.2.1-.1.3-.2.4-.2l18.2-13.2c1.6-1.2 1.4-2.9-.4-3.9Z"/><path fill="#fff" d="M832.799 581c-.2-.1-.3-.2-.5-.3L609.899 478c-2.4-1.1-5.9-1-8 .3-.2.1-.3.2-.4.3l-113.2 82.3c-1.9 1.4-1.7 3.4.5 4.6.2.1.3.2.5.3l222.4 102.8c2.4 1.1 5.9 1 8-.3.2-.1.3-.2.4-.3l113.2-82.3c1.9-1.4 1.6-3.4-.5-4.7Z"/><path fill="#636363" d="M488.799 565.4c-2.1-1.2-2.4-3.2-.5-4.6l113.2-82.3c.1-.1.3-.2.4-.3 2.1-1.2 5.6-1.4 8-.3l222.4 102.8c.2.1.3.2.5.3 2.1 1.2 2.4 3.2.5 4.6l-113.2 82.3c-.1.1-.3.2-.4.3-2.1 1.2-5.6 1.4-8 .3l-222.4-102.8c-.2-.1-.4-.2-.5-.3Zm345.4 14.8c-.2-.1-.4-.2-.7-.3l-222.3-102.8c-3.2-1.5-7.8-1.3-10.7.3-.2.1-.4.2-.6.4l-113.2 82.2c-2.6 1.9-2.2 4.5.6 6.2 0 0 .1 0 .1.1l.6.3 222.4 102.8c3.2 1.5 7.8 1.3 10.7-.3.2-.1.4-.2.6-.4l113.2-82.3c2.5-1.9 2.2-4.5-.7-6.2ZM600.2 629.6l-125.4-58c-.4-.2-1-.2-1.3 0h-.1l-7.1 5.2c-.3.2-.3.6.1.8h.1l125.3 57.9c.4.2 1 .2 1.3 0h.1l7.1-5.2c.3-.2.2-.5-.1-.7Z"/><path fill="#636363" d="M466.298 577.6c-.4-.2-.4-.5-.1-.8l7.1-5.2h.1c.4-.2.9-.2 1.3 0l125.3 57.9h.1c.4.2.4.5.1.8l-7.1 5.2h-.1c-.3.2-.9.2-1.3 0l-125.4-57.9Zm135.3 51.1c-.1 0-.2-.1-.2-.1l-125.4-57.9c-1.2-.6-2.9-.5-4 .1-.1 0-.2.1-.2.1l-7.1 5.2c-1 .7-.8 1.7.2 2.3.1 0 .2.1.2.1l125.3 57.9c1.2.6 2.9.5 4-.1.1 0 .1-.1.2-.1l7.1-5.2c1.1-.6.9-1.6-.1-2.3Z"/><path fill="#fff" d="m542 618.8-80.8-37.4c-.4-.2-1-.2-1.3 0l-.1.1-7.1 5.2c-.3.2-.3.6.1.8h.1l80.8 37.3c.4.2 1 .2 1.3 0h.1l7.1-5.2c.2-.2.2-.6-.2-.8Z"/><path fill="#636363" d="M452.699 587.5c-.4-.2-.4-.5-.1-.8l7.1-5.2.1-.1c.4-.2.9-.2 1.3 0l80.8 37.3h.1c.4.2.4.5.1.8l-7.1 5.2h-.1c-.3.2-.9.2-1.3 0l-80.9-37.2Zm90.6 30.5c-.1 0-.1-.1-.2-.1l-80.8-37.3c-1.2-.6-2.9-.5-4 .1-.1 0-.2.1-.2.1l-7.1 5.2c-1 .7-.8 1.7.2 2.3.1 0 .2.1.2.1l80.8 37.3c1.2.6 2.9.5 4-.1.1 0 .1-.1.2-.1l7.1-5.2c1.1-.7 1-1.7-.2-2.3.1 0 .1 0 0 0Zm160.3 59.4c-.1 0-.2-.1-.2-.1l-22.9-10.6c-1.2-.6-2.9-.5-4 .1-.1 0-.2.1-.2.1l-18.3 13.3c-1 .7-.8 1.7.2 2.3.1 0 .2.1.3.1l22.9 10.6c1.2.6 2.9.5 4-.1.1 0 .1-.1.2-.1l18.2-13.2c1-.8.9-1.8-.2-2.4Z"/><path fill="#636363" d="M703.399 677.3c.1 0 .2.1.2.1 1.1.6 1.2 1.6.2 2.3l-18.2 13.2c-.1.1-.1.1-.2.1-1.1.6-2.8.7-4 .1l-22.9-10.6c-.1 0-.2-.1-.3-.1-1.1-.6-1.2-1.6-.2-2.3l18.2-13.2c.1 0 .1-.1.2-.1 1.1-.6 2.8-.7 4-.1l23 10.6Zm1.6-.7c-.1-.1-.3-.1-.4-.2l-22.9-10.6c-2-.9-4.9-.8-6.7.2-.1.1-.3.2-.4.2l-18.2 13.2c-1.6 1.2-1.4 2.8.4 3.9.1.1.3.1.4.2l22.9 10.6c2 .9 4.9.8 6.7-.2.1-.1.3-.2.4-.2l18.2-13.2c1.6-1.2 1.4-2.9-.4-3.9Zm535.901 312c-1.9-1.1-5-1.4-7.5-.5l-153 56.7c-.4.1-.7.3-1 .5-1.9 1.1-2.3 2.9-.8 4.3l153.6 138.7c.2.2.5.4.8.6 2 1.1 5.1 1.4 7.5.5l153-56.7c.4-.1.7-.3 1-.5 1.9-1.1 2.3-2.9.8-4.3l-153.6-138.7c-.2-.2-.5-.4-.8-.6Z"/><path fill="#636363" d="M1242.3 987.8c-2.6-1.5-6.7-1.8-10-.6l-153 56.7c-.5.2-1 .4-1.4.6-2.6 1.5-3.1 3.9-1 5.8l153.6 138.7.8-.3.8-.3-153.6-138.7c-1.5-1.4-1.2-3.2.8-4.3.3-.2.6-.3 1-.5l153-56.7c2.4-.9 5.5-.7 7.5.5.3.2.6.4.8.6l153.6 138.7c1.5 1.4 1.2 3.2-.8 4.3-.3.2-.6.3-1 .5l-153 56.7c-2.4.9-5.5.7-7.5-.5-.3-.2-.6-.4-.8-.6l-.8.3-.8.3c.3.3.6.5 1 .7h.1c2.6 1.5 6.7 1.8 10 .6l153-56.7c.5-.2 1-.4 1.4-.6 2.6-1.5 3.1-3.9 1-5.8l-153.6-138.7c-.3-.2-.7-.5-1.1-.7Z"/><path fill="#fff" d="M1061.4 1052.4c-.3-.2-.8-.2-1.2-.1l-9.6 3.6-.2.1c-.3.2-.4.5-.1.7l86.6 78.2.1.1c.3.2.8.2 1.2.1l9.6-3.6.2-.1c.3-.2.4-.5.1-.7l-86.6-78.2-.1-.1Z"/><path fill="#636363" d="M1062.8 1051.6c-1-.6-2.5-.7-3.7-.2l-9.6 3.6c-.2.1-.4.2-.5.2-1 .6-1.2 1.5-.4 2.2l86.6 78.2.8-.3.8-.3-86.6-78.2c-.3-.2-.2-.5.1-.7l.2-.1 9.6-3.6c.4-.2.9-.1 1.2.1l.1.1 86.6 78.2c.3.2.2.5-.1.7l-.2.1-9.6 3.6c-.4.1-.9.1-1.2-.1l-.1-.1-.8.3-.8.3c.1.1.2.2.4.3 1 .6 2.5.7 3.7.2l9.6-3.6c.2-.1.4-.1.5-.2 1-.6 1.2-1.5.4-2.2l-86.6-78.2c-.1-.2-.2-.3-.4-.3Zm-19.7 7.6c-.3-.2-.8-.2-1.2-.1l-9.6 3.6-.2.1c-.3.2-.4.5-.1.7l55.8 50.4.1.1c.3.2.8.2 1.2.1l9.6-3.6.2-.1c.3-.2.4-.5.1-.7l-55.8-50.4-.1-.1Z"/><path fill="#636363" d="M1044.5 1058.4c-1-.6-2.5-.7-3.7-.2l-9.6 3.6c-.2.1-.4.1-.5.2-1 .6-1.2 1.5-.4 2.2l55.8 50.4.8-.3.8-.3-55.8-50.4c-.3-.2-.2-.5.1-.7l.2-.1 9.6-3.6c.4-.2.9-.1 1.2.1l.1.1 55.8 50.4c.3.2.2.5-.1.7l-.2.1-9.6 3.6c-.4.2-.9.1-1.2-.1l-.1-.1-.8.3-.8.3c.1.1.3.2.4.3 1 .6 2.5.7 3.7.2l9.6-3.6c.2-.1.3-.2.5-.2 1-.6 1.2-1.5.4-2.2l-55.8-50.4c-.1-.2-.3-.3-.4-.3Z"/><path fill="#fff" d="M1203.3 1180.5c-1-.6-2.5-.7-3.7-.2l-24.6 9.1c-.2.1-.4.2-.5.2-1 .6-1.2 1.5-.4 2.2l15.8 14.3c.1.1.3.2.4.3 1 .6 2.5.7 3.7.2l24.6-9.1c.2-.1.4-.2.5-.2 1-.6 1.2-1.5.4-2.2l-15.8-14.3c-.2-.1-.3-.2-.4-.3Z"/><path fill="#636363" d="M1204.7 1179.7c-1.6-.9-4.2-1.1-6.2-.4l-24.6 9.1c-.3.1-.6.3-.8.4-1.6.9-1.9 2.4-.7 3.6l15.8 14.3c.2.2.4.3.7.5 1.6.9 4.2 1.1 6.2.4l24.6-9.1c.3-.1.6-.3.8-.4 1.6-.9 2-2.4.7-3.6l-.8.3-.8.3c.8.7.6 1.6-.4 2.2-.1.1-.3.2-.5.2l-24.6 9.1c-1.2.4-2.8.3-3.7-.2-.2-.1-.3-.2-.4-.3l-15.8-14.3c-.8-.7-.6-1.6.4-2.2.1-.1.3-.2.5-.2l24.6-9.1c1.2-.4 2.8-.3 3.7.2.1.1.3.2.4.3l15.8 14.3.8-.3.8-.3-15.8-14.3c-.3-.2-.5-.4-.7-.5Z"/><path fill="#fff" d="M996.798 898.6c-.2-.1-.3-.2-.5-.3l-222.3-102.8c-2.4-1.1-5.9-1-8 .3-.1.1-.3.2-.4.3l-113.2 82.3c-1.9 1.4-1.7 3.4.5 4.6.2.1.3.2.5.3l222.3 102.7c2.4 1.1 5.9 1 8-.3.2-.1.3-.2.4-.3l113.2-82.3c1.9-1.3 1.7-3.3-.5-4.5Z"/><path fill="#636363" d="M652.799 883c-2.1-1.2-2.4-3.2-.5-4.6l113.2-82.3c.1-.1.3-.2.4-.3 2.1-1.2 5.6-1.4 8-.3l222.4 102.8c.2.1.3.2.5.3 2.1 1.2 2.4 3.2.5 4.6l-113.2 82.3c-.1.1-.3.2-.4.3-2.1 1.2-5.6 1.4-8 .3l-222.4-102.9c-.1-.1-.3-.1-.5-.2Zm345.5 14.8c-.2-.1-.4-.2-.7-.3l-222.4-102.9c-3.2-1.5-7.8-1.3-10.7.3-.2.1-.4.2-.6.4l-113.2 82.3c-2.6 1.9-2.2 4.5.6 6.2.2.1.4.2.7.3l222.4 102.8c3.2 1.5 7.8 1.3 10.7-.3.2-.1.4-.3.6-.4l113.2-82.2c2.501-1.9 2.201-4.6-.6-6.2ZM764.2 947.1l-125.4-58c-.4-.2-1-.2-1.3 0h-.1l-7.1 5.2c-.3.2-.3.6.1.8h.1L755.8 953c.4.2 1 .2 1.3 0h.1l7.1-5.2c.3-.1.3-.5-.1-.7Z"/><path fill="#636363" d="M630.298 895.2c-.4-.2-.4-.5-.1-.8l7.1-5.2h.1c.4-.2.9-.2 1.3 0l125.3 57.9h.1c.4.2.4.5.1.8l-7.1 5.2h-.1c-.3.2-.9.2-1.3 0l-125.4-57.9Zm135.3 51.1c-.1 0-.2-.1-.2-.1l-125.4-58c-1.2-.6-2.9-.5-4 .1-.1 0-.2.1-.2.1l-7.1 5.2c-1 .7-.8 1.7.2 2.3.1 0 .2.1.2.1l125.3 57.9c1.2.6 2.9.5 4-.1.1 0 .1-.1.2-.1l7.1-5.2c1.1-.6 1-1.6-.1-2.2Z"/><path fill="#fff" d="m705.998 936.4-80.8-37.4c-.4-.2-1-.2-1.3 0h-.1l-7.1 5.2c-.3.2-.3.6.1.8h.1l80.8 37.3c.4.2 1 .2 1.3 0h.1l7.1-5.2c.2-.2.2-.5-.2-.7Z"/><path fill="#636363" d="M616.799 905c-.4-.2-.4-.5-.1-.8l7.1-5.2h.1c.4-.2.9-.2 1.3 0l80.8 37.3h.1c.4.2.4.5.1.8l-7.1 5.2h-.1c-.3.2-.9.2-1.3 0l-80.9-37.3Zm90.6 30.5c-.1 0-.1-.1-.2-.1l-80.8-37.3c-1.2-.6-2.9-.5-4 .1-.1 0-.2.1-.2.1l-7.1 5.2c-1 .7-.8 1.7.2 2.3.1 0 .2.1.2.1l80.8 37.3c1.2.6 2.9.5 4-.1.1 0 .2-.1.2-.1l7.1-5.2c1-.6.9-1.6-.2-2.3ZM867.698 995c-.1 0-.2-.1-.2-.1l-22.9-10.6c-1.2-.6-2.9-.5-4 .1-.1 0-.1.1-.2.1l-18.2 13.2c-1 .7-.8 1.7.2 2.3.1 0 .2.1.2.1l22.9 10.6c1.2.6 2.9.5 4-.1.1 0 .1-.1.2-.1l18.2-13.2c1-.7.8-1.7-.2-2.3Z"/><path fill="#636363" d="M867.399 994.8c.1 0 .2.1.2.1 1.1.6 1.2 1.6.2 2.3l-18.2 13.2c-.1.1-.1.1-.2.1-1.1.6-2.8.7-4 .1l-22.9-10.6c-.1 0-.2-.1-.2-.1-1.1-.6-1.2-1.6-.2-2.3l18.2-13.2c.1-.1.1-.1.2-.1 1.1-.6 2.8-.7 4-.1l22.9 10.6Zm1.7-.7c-.1-.1-.3-.1-.4-.2l-22.9-10.6c-2-.9-4.9-.8-6.7.2-.1.1-.3.2-.4.2l-18.2 13.3c-1.6 1.2-1.4 2.8.4 3.9.1.1.3.1.4.2l22.9 10.6c2 .9 4.9.8 6.7-.2.1-.1.3-.2.4-.2l18.2-13.2c1.6-1.3 1.4-2.9-.4-4Z"/><path fill="#fff" d="M1809.8 998.3c-.2-.1-.3-.2-.5-.3l-222.4-102.8c-2.4-1.1-5.9-1-8 .3-.1.1-.3.2-.4.3L1465.3 978c-1.9 1.4-1.7 3.4.5 4.6.2.1.3.2.5.3l222.4 102.8c2.4 1.1 5.9 1 8-.3.2-.1.3-.2.4-.3l113.2-82.3c1.9-1.3 1.6-3.3-.5-4.5Z"/><path fill="#636363" d="M1465.8 982.7c-2.1-1.2-2.4-3.2-.5-4.6l113.2-82.3c.1-.1.3-.2.4-.3 2.1-1.2 5.6-1.4 8-.3L1809.3 998c.2.1.3.2.5.3 2.1 1.2 2.4 3.2.5 4.6l-113.2 82.3c-.1.1-.3.2-.4.3-2.1 1.2-5.6 1.4-8 .3L1466.3 983c-.2-.1-.4-.2-.5-.3Zm345.4 14.8c-.2-.1-.4-.2-.7-.3l-222.4-102.8c-3.2-1.5-7.8-1.3-10.7.3-.2.1-.4.2-.6.4l-113.2 82.3c-2.6 1.9-2.2 4.5.6 6.2.2.1.4.2.7.3l222.4 102.8c3.2 1.5 7.8 1.3 10.7-.3.2-.1.4-.3.6-.4l113.2-82.3c2.6-1.9 2.3-4.6-.6-6.2Zm-234 49.3-125.4-58c-.4-.2-1-.2-1.3 0h-.1l-7.1 5.2c-.3.2-.3.6.1.8h.1l125.3 57.9c.4.2 1 .2 1.3 0h.1l7.1-5.2c.3-.1.2-.5-.1-.7Z"/><path fill="#636363" d="M1443.3 994.9c-.4-.2-.4-.5-.1-.8l7.1-5.2h.1c.4-.2.9-.2 1.3 0l125.3 57.9h.1c.4.2.4.5.1.8l-7.1 5.2h-.1c-.3.2-.9.2-1.3 0l-125.4-57.9Zm135.3 51.1c-.1 0-.2-.1-.2-.1l-125.4-58c-1.2-.6-2.9-.5-4 .1-.1 0-.2.1-.2.1l-7.1 5.2c-1 .7-.8 1.7.2 2.3.1 0 .2.1.2.1l125.3 57.9c1.2.6 2.9.5 4-.1.1 0 .1-.1.2-.1l7.1-5.2c1.1-.6.9-1.6-.1-2.2Z"/><path fill="#fff" d="m1519 1036.1-80.8-37.4c-.4-.2-1-.2-1.3 0h-.1l-7.1 5.2c-.3.2-.3.6.1.8h.1l80.8 37.3c.4.2 1 .2 1.3 0h.1l7.1-5.2c.2-.2.2-.5-.2-.7Z"/><path fill="#636363" d="M1429.7 1004.7c-.4-.2-.4-.5-.1-.8l7.1-5.2h.1c.4-.2.9-.2 1.3 0l80.8 37.3h.1c.4.2.4.5.1.8l-7.1 5.2h-.1c-.3.2-.9.2-1.3 0l-80.9-37.3Zm90.6 30.5c-.1 0-.1-.1-.2-.1l-80.8-37.3c-1.2-.6-2.9-.5-4 .1-.1 0-.2.1-.2.1l-7.1 5.2c-1 .7-.8 1.7.2 2.3.1 0 .2.1.2.1l80.8 37.3c1.2.6 2.9.5 4-.1.1 0 .2-.1.2-.1l7.1-5.2c1.1-.6 1-1.6-.2-2.3.1.1.1.1 0 0Zm160.3 59.5c-.1 0-.2-.1-.2-.1l-22.9-10.6c-1.2-.6-2.9-.5-4 .1-.1 0-.1.1-.2.1l-18.2 13.2c-1 .7-.8 1.7.2 2.3.1 0 .2.1.2.1l22.9 10.6c1.2.6 2.9.5 4-.1.1 0 .1-.1.2-.1l18.2-13.2c1-.7.9-1.7-.2-2.3Z"/><path fill="#636363" d="M1680.4 1094.5c.1 0 .2.1.2.1 1.1.6 1.2 1.6.2 2.3l-18.2 13.2c-.1.1-.1.1-.2.1-1.1.6-2.8.7-4 .1l-22.9-10.6c-.1 0-.2-.1-.2-.1-1.1-.6-1.2-1.6-.2-2.3l18.2-13.2c.1-.1.1-.1.2-.1 1.1-.6 2.8-.7 4-.1l22.9 10.6Zm1.6-.6c-.1-.1-.3-.1-.4-.2l-22.9-10.6c-2-.9-4.9-.8-6.7.2-.1.1-.3.2-.4.2l-18.2 13.2c-1.6 1.2-1.4 2.8.4 3.9.1.1.3.1.4.2l22.9 10.6c2 .9 4.9.8 6.7-.2.1-.1.3-.2.4-.2l18.2-13.2c1.6-1.3 1.4-2.9-.4-3.9ZM618.9 753.3c-.5-.3-1-.5-1.6-.7l-256.1-71.7c-2.4-.7-5.1-.3-6.9.7-.5.3-.8.6-1.2.9l-78.7 94.8c-1.1 1.4-.6 3 1.2 4 .5.3 1 .5 1.6.7l256.1 71.7c2.4.7 5.1.3 6.9-.7.5-.3.8-.6 1.2-.9l78.7-94.8c1.1-1.4.6-3-1.2-4Z"/><path fill="#636363" d="M275.6 781.3c-1.8-1-2.3-2.6-1.2-4l78.7-94.8c.3-.4.7-.7 1.2-.9 1.8-1 4.5-1.3 6.9-.7l256.1 71.7c.6.2 1.2.4 1.6.7 1.8 1 2.3 2.6 1.2 4l-78.7 94.8c-.3.4-.7.7-1.2.9-1.8 1-4.5 1.3-6.9.7l-256-71.7c-.6-.2-1.2-.4-1.7-.7Zm344.7-28.9c-.6-.4-1.4-.7-2.2-.9L362 679.9c-3.2-.9-6.8-.5-9.1.9-.6.4-1.1.8-1.5 1.3l-78.7 94.8c-1.5 1.8-.8 3.9 1.6 5.3.6.4 1.3.7 2.2.9l256.1 71.7c3.1.9 6.8.5 9.1-.9.6-.4 1.1-.8 1.5-1.3l78.7-94.8c1.5-1.9.8-4-1.6-5.4Z"/><path fill="#fff" d="M410 830.2c-.1 0-.2-.1-.3-.1l-144.4-40.4c-.4-.1-.8-.1-1.1.1-.1 0-.1.1-.2.2l-4.9 6c-.2.2-.1.5.2.7.1 0 .2.1.3.1L403.9 837c.4.1.9.1 1.1-.1.1 0 .1-.1.2-.2l4.9-6c.3-.1.2-.4-.1-.5Z"/><path fill="#636363" d="M259.3 796.5c-.3-.2-.4-.4-.2-.7l4.9-6 .2-.2c.3-.2.7-.2 1.1-.1L409.7 830c.1 0 .2.1.3.1.3.2.4.4.2.7l-4.9 6-.2.2c-.3.2-.7.2-1.1.1l-144.3-40.4c-.2-.1-.3-.1-.4-.2Zm152.1 32.8c-.2-.1-.5-.3-.8-.3l-144.4-40.4c-1.2-.3-2.6-.2-3.4.3-.2.1-.4.3-.6.5l-4.9 6c-.6.7-.3 1.5.6 2 .2.1.5.2.8.3L403 838.1c1.2.3 2.5.2 3.4-.3.2-.1.4-.3.6-.5l5-6c.6-.7.3-1.5-.6-2Zm-62.2-2.1c-.1 0-.2-.1-.3-.1l-93-26c-.4-.1-.9-.1-1.1.1-.1 0-.1.1-.2.2l-4.9 6c-.2.2-.1.5.2.7.1 0 .2.1.3.1l93 26c.4.1.9.1 1.1-.1.1 0 .1-.1.2-.2l4.9-6c.2-.3.1-.6-.2-.7Z"/><path fill="#636363" d="M249.8 807.9c-.3-.2-.4-.4-.2-.7l4.9-6 .2-.2c.3-.2.7-.2 1.1-.1l93 26c.1 0 .2.1.3.1.3.2.4.4.2.7l-4.9 6c0 .1-.1.1-.2.2-.3.2-.7.2-1.1.1l-93-26c-.1 0-.2 0-.3-.1Zm100.8 18.4c-.2-.1-.5-.3-.8-.3l-93-26c-1.2-.3-2.6-.2-3.4.3-.2.1-.4.3-.6.5l-4.9 6c-.6.7-.3 1.5.6 2 .2.1.5.3.8.3l93 26c1.2.3 2.5.2 3.4-.3.2-.1.4-.3.6-.5l4.9-6c.6-.7.3-1.5-.6-2Z"/><path fill="#fff" d="M529.499 863.7c-.2-.1-.5-.2-.8-.3l-26.4-7.4c-1.2-.3-2.6-.2-3.4.3-.2.1-.4.3-.6.5l-12.7 15.2c-.6.7-.3 1.5.6 2 .2.1.5.2.8.3l26.4 7.4c1.2.3 2.6.2 3.4-.3.2-.1.4-.3.6-.5l12.7-15.3c.6-.6.3-1.4-.6-1.9Z"/><path fill="#636363" d="M528.701 863.3c.3.1.6.2.8.3.9.5 1.2 1.3.6 2l-12.7 15.3c-.1.2-.3.3-.6.5-.9.5-2.2.7-3.4.3l-26.4-7.4c-.3-.1-.6-.2-.8-.3-.9-.5-1.2-1.3-.6-2l12.7-15.3c.2-.2.4-.3.6-.5.9-.5 2.2-.7 3.4-.3l26.4 7.4Zm2.2-.4c-.4-.2-.8-.4-1.4-.6l-26.4-7.4c-2-.5-4.3-.3-5.7.6-.4.2-.7.5-1 .8l-12.7 15.2c-.9 1.1-.5 2.5 1 3.3.4.2.8.4 1.3.5l26.4 7.4c2 .6 4.3.3 5.7-.6.4-.2.7-.5 1-.8l12.7-15.3c1-1 .6-2.3-.9-3.1ZM1619.8 455.6c-.5-.3-1-.5-1.6-.7L1362 383.3c-2.4-.7-5.1-.3-6.9.7-.5.3-.8.6-1.2.9l-78.7 94.8c-1.1 1.4-.6 3 1.2 4 .5.3 1 .5 1.6.7l256.1 71.7c2.4.7 5.1.3 6.9-.7.5-.3.8-.6 1.2-.9l78.7-94.8c1.2-1.5.6-3.1-1.1-4.1Z"/><path fill="#636363" d="M1276.5 483.7c-1.8-1-2.3-2.6-1.2-4l78.7-94.8c.3-.4.7-.7 1.2-.9 1.8-1 4.5-1.3 6.9-.7l256.1 71.7c.6.2 1.2.4 1.6.7 1.8 1 2.3 2.6 1.2 4l-78.7 94.8c-.3.4-.7.7-1.2.9-1.8 1-4.5 1.3-6.9.7l-256.1-71.7c-.6-.2-1.1-.5-1.6-.7Zm344.7-28.9c-.6-.4-1.4-.7-2.2-.9l-256.1-71.7c-3.2-.9-6.8-.5-9.1.9-.6.4-1.1.8-1.5 1.3l-78.7 94.8c-1.5 1.8-.8 3.9 1.6 5.3.6.4 1.3.7 2.2.9l256.1 71.7c3.1.9 6.8.5 9.1-.9.6-.4 1.1-.8 1.5-1.3l78.7-94.8c1.5-1.8.7-4-1.6-5.3Z"/><path fill="#fff" d="M1410.9 532.5c-.1 0-.2-.1-.3-.1L1266.2 492c-.4-.1-.8-.1-1.1.1-.1 0-.1.1-.2.2l-4.9 6c-.2.2-.1.5.2.7.1 0 .2.1.3.1l144.3 40.4c.4.1.9.1 1.1-.1.1 0 .1-.1.2-.2l4.9-6c.3-.3.2-.5-.1-.7Z"/><path fill="#636363" d="M1260.2 498.9c-.3-.2-.4-.4-.2-.7l4.9-6 .2-.2c.3-.2.7-.2 1.1-.1l144.4 40.4c.1 0 .2.1.3.1.3.2.4.4.2.7l-4.9 6-.2.2c-.3.2-.7.2-1.1.1L1260.4 499c-.1 0-.2-.1-.2-.1Zm152.1 32.8c-.2-.1-.5-.3-.8-.3L1267.1 491c-1.2-.3-2.6-.2-3.4.3-.2.1-.4.3-.6.5l-4.9 6c-.6.7-.3 1.5.6 2 .2.1.5.2.8.3l144.3 40.4c1.2.3 2.5.2 3.4-.3.2-.1.4-.3.6-.5l5-6c.5-.7.3-1.5-.6-2Zm-62.2-2.2c-.1 0-.2-.1-.3-.1l-93-26c-.4-.1-.9-.1-1.1.1-.1 0-.1.1-.2.2l-4.9 6c-.2.2-.1.5.2.7.1 0 .2.1.3.1l93 26c.4.1.9.1 1.1-.1.1 0 .1-.1.2-.2l4.9-6c.2-.3.1-.5-.2-.7Z"/><path fill="#636363" d="M1250.7 510.3c-.3-.2-.4-.4-.2-.7l4.9-6 .2-.2c.3-.2.7-.2 1.1-.1l93 26c.1 0 .2.1.3.1.3.2.4.4.2.7l-4.9 6c0 .1-.1.1-.2.2-.3.2-.7.2-1.1.1l-93-26c-.1-.1-.2-.1-.3-.1Zm100.8 18.4c-.2-.1-.5-.3-.8-.3l-93-26c-1.2-.3-2.6-.2-3.4.3-.2.1-.4.3-.6.5l-4.9 6c-.6.7-.3 1.5.6 2 .2.1.5.3.8.3l93 26c1.2.3 2.5.2 3.4-.3.2-.1.4-.3.6-.5l4.9-6c.5-.7.3-1.5-.6-2Z"/><path fill="#fff" d="M1530.4 566c-.2-.1-.5-.2-.8-.3l-26.4-7.4c-1.2-.3-2.6-.2-3.4.3-.2.1-.4.3-.6.5l-12.7 15.3c-.6.7-.3 1.5.6 2 .2.1.5.2.8.3l26.4 7.4c1.2.3 2.6.2 3.4-.3.2-.1.4-.3.6-.5L1531 568c.5-.7.3-1.5-.6-2Z"/><path fill="#636363" d="M1529.6 565.7c.3.1.6.2.8.3.9.5 1.2 1.3.6 2l-12.7 15.3c-.1.2-.3.3-.6.5-.9.5-2.2.7-3.4.3l-26.4-7.4c-.3-.1-.6-.2-.8-.3-.9-.5-1.2-1.3-.6-2l12.7-15.3c.2-.2.4-.3.6-.5.9-.5 2.2-.7 3.4-.3l26.4 7.4Zm2.2-.5c-.4-.2-.8-.4-1.4-.6l-26.4-7.4c-2-.5-4.3-.3-5.7.6-.4.2-.7.5-1 .8l-12.7 15.2c-.9 1.1-.5 2.5 1 3.3.4.2.8.4 1.3.5l26.4 7.4c2 .6 4.3.3 5.7-.6.4-.2.7-.5 1-.8l12.7-15.3c1-.9.5-2.2-.9-3.1ZM936.5 1094c-.5-.3-1-.5-1.6-.7l-256.1-71.7c-2.4-.7-5.1-.3-6.9.7-.5.3-.8.6-1.2.9L592 1118c-1.1 1.4-.6 3 1.2 4 .5.3 1 .5 1.6.7l256.1 71.7c2.4.7 5.1.3 6.9-.7.5-.3.8-.6 1.2-.9l78.7-94.8c1.1-1.4.5-3-1.2-4Z"/><path fill="#636363" d="M593.2 1122.1c-1.8-1-2.3-2.6-1.2-4l78.7-94.8c.3-.4.7-.7 1.2-.9 1.8-1 4.5-1.3 6.9-.7l256.1 71.7c.6.2 1.2.4 1.6.7 1.8 1 2.3 2.6 1.2 4l-78.7 94.8c-.3.4-.7.7-1.2.9-1.8 1-4.5 1.3-6.9.7l-256.1-71.7c-.6-.2-1.1-.5-1.6-.7Zm344.7-28.9c-.6-.4-1.4-.7-2.2-.9l-256.1-71.7c-3.2-.9-6.8-.5-9.1.9-.6.4-1.1.8-1.5 1.3l-78.7 94.8c-1.5 1.8-.8 3.9 1.6 5.3.6.4 1.3.7 2.2.9l256.1 71.7c3.1.9 6.8.5 9.1-.9.6-.4 1.1-.8 1.5-1.3l78.7-94.8c1.5-1.8.7-4-1.6-5.3Z"/><path fill="#fff" d="M727.6 1170.9c-.1 0-.2-.1-.3-.1l-144.4-40.4c-.4-.1-.8-.1-1.1.1-.1 0-.1.1-.2.2l-4.9 6c-.2.2-.1.5.2.7.1 0 .2.1.3.1l144.3 40.4c.4.1.9.1 1.1-.1.1 0 .1-.1.2-.2l4.9-6c.3-.3.2-.5-.1-.7Z"/><path fill="#636363" d="M576.9 1137.3c-.3-.2-.4-.4-.2-.7l4.9-6 .2-.2c.3-.2.7-.2 1.1-.1l144.4 40.4c.1 0 .2.1.3.1.3.2.4.4.2.7l-4.9 6-.2.2c-.3.2-.7.2-1.1.1l-144.3-40.4c-.3 0-.4-.1-.4-.1Zm152.1 32.8c-.2-.1-.5-.3-.8-.3l-144.4-40.4c-1.2-.3-2.6-.2-3.4.3-.2.1-.4.3-.6.5l-4.9 6c-.6.7-.3 1.5.6 2 .2.1.5.2.8.3l144.3 40.4c1.2.3 2.5.2 3.4-.3.2-.1.4-.3.6-.5l5-6c.5-.7.3-1.5-.6-2Zm-62.201-2.2c-.1 0-.2-.1-.3-.1l-93-26c-.4-.1-.9-.1-1.1.1-.1 0-.1.1-.2.2l-4.9 6c-.2.2-.1.5.2.7.1 0 .2.1.3.1l93 26c.4.1.9.1 1.1-.1.1 0 .1-.1.2-.2l4.9-6c.2-.3.1-.5-.2-.7Z"/><path fill="#636363" d="M567.4 1148.6c-.3-.2-.4-.4-.2-.7l4.9-6 .2-.2c.3-.2.7-.2 1.1-.1l93 26c.1 0 .2.1.3.1.3.2.4.4.2.7l-4.9 6c0 .1-.1.1-.2.2-.3.2-.7.2-1.1.1l-93-26c-.1 0-.2 0-.3-.1Zm100.8 18.5c-.2-.1-.5-.3-.8-.3l-93-26c-1.2-.3-2.6-.2-3.4.3-.2.1-.4.3-.6.5l-4.9 6c-.6.7-.3 1.5.6 2 .2.1.5.3.8.3l93 26c1.2.3 2.5.2 3.4-.3.2-.1.4-.3.6-.5l4.9-6c.6-.7.3-1.5-.6-2Z"/><path fill="#fff" d="M847.099 1204.4c-.2-.1-.5-.2-.8-.3l-26.4-7.4c-1.2-.3-2.6-.2-3.4.3-.2.1-.4.3-.6.5l-12.7 15.3c-.6.7-.3 1.5.6 2 .2.1.5.2.8.3l26.4 7.4c1.2.3 2.6.2 3.4-.3.2-.1.4-.3.6-.5l12.7-15.3c.5-.7.3-1.5-.6-2Z"/><path fill="#636363" d="M846.3 1204.1c.3.1.6.2.8.3.9.5 1.2 1.3.6 2l-12.7 15.3c-.1.2-.3.3-.6.5-.9.5-2.2.7-3.4.3l-26.4-7.4c-.3-.1-.6-.2-.8-.3-.9-.5-1.2-1.3-.6-2l12.7-15.3c.2-.2.4-.3.6-.5.9-.5 2.2-.7 3.4-.3l26.4 7.4Zm2.2-.5c-.4-.2-.8-.4-1.4-.6l-26.4-7.4c-2-.5-4.3-.3-5.7.6-.4.2-.7.5-1 .8l-12.7 15.2c-.9 1.1-.5 2.5 1 3.3.4.2.8.4 1.3.5l26.4 7.4c2 .6 4.3.3 5.7-.6.4-.2.7-.5 1-.8l12.7-15.3c1-.9.6-2.3-.9-3.1Z"/><path fill="#636363" stroke="#636363" stroke-linecap="round" stroke-linejoin="round" stroke-miterlimit="10" stroke-width="2" d="m1217.9 428.8-2.1 61.9-.1 76.9 22.8 12.4.1-76.9 2.1-61.9-22.8-12.4Zm110.4 138.7c.1 0 .3 0 .4.1.3.1.5.2.8.3l-22.8-12.4c-.2-.1-.4-.2-.6-.2h-.1c-.1 0-.3 0-.4-.1h-.8l-27.5 3.9 22.8 12.4 27.5-3.9h.6c0-.1.1-.1.1-.1Zm-90.1 127.9.1-66-22.8-12.4-.1 66c0 1.4.7 2.5 1.7 3.1l22.8 12.4c-1-.5-1.7-1.7-1.7-3.1ZM1160.3 591l-22.8-12.4 78.2-11 22.8 12.4-78.2 11Z"/><path fill="#fff" stroke="#636363" stroke-linecap="round" stroke-linejoin="round" stroke-miterlimit="10" stroke-width="2" d="M1327.5 567.5c2-.3 3.6 1.2 3.6 3.4l-.1 41.5c0 2.2-1.6 4.2-3.7 4.4l-27.5 3.9-.1 66c0 2.2-1.6 4.2-3.7 4.4l-54.3 7.6c-2 .3-3.6-1.2-3.6-3.4l.1-66-123.1 17.3c-2 .3-3.6-1.2-3.6-3.4l.1-48.5c0-2.2.8-5.4 2-7.7l103.2-187.6c1.2-2.3 3.7-4 5.7-4.3l74.1-10.4c2-.3 3.6 1.2 3.6 3.4l-.3 183.1 27.6-3.7Zm-88.9-64.4 2.1-61.9-80.4 149.8 78.2-11 .1-76.9Z"/><path fill="#636363" stroke="#636363" stroke-linecap="round" stroke-linejoin="round" stroke-miterlimit="10" stroke-width="2" d="m1111.6 643.3.1-48.5-22.8-12.4-.1 48.5c0 1.4.7 2.5 1.7 3.1l22.8 12.4c-1-.6-1.7-1.7-1.7-3.1Zm164.3-270.6c-.6-.3-1.2-.4-2-.3l-74.1 10.4c-.3 0-.5.1-.8.2-.1 0-.2.1-.3.1-.2.1-.4.1-.6.2h-.1l-.6.3c-.2.1-.4.2-.6.4 0 0-.1 0-.1.1-.2.2-.5.3-.7.5l-.1.1c-.2.2-.4.3-.5.5l-.2.2c0 .1-.1.1-.1.2-.2.2-.3.4-.4.6-.1.1-.1.2-.2.3-.1.2-.2.3-.3.5 0 0 0 .1-.1.1l-103.2 187.6c-1.2 2.3-2 5.5-2 7.7l22.8 12.4c0-2.2.8-5.4 2-7.7l103.2-187.6c.1-.2.2-.4.4-.6.1-.1.1-.2.2-.3.1-.2.3-.4.5-.6 0-.1.1-.1.1-.2l.2-.2c.2-.2.3-.4.5-.5.1 0 .1-.1.2-.1.2-.2.4-.4.7-.5.2-.2.4-.3.6-.4.2-.1.5-.2.7-.3.2-.1.4-.2.6-.2.1 0 .2-.1.3-.1.3-.1.6-.2.8-.2l74.1-10.4c.7-.1 1.4 0 2 .3l-22.9-12.5ZM1014 475.6l-22.799-12.4c18.599 10.1 28.499 41.7 28.399 99.1-.1 76-17.6 110-49.199 114.4-7.9 1.1-14.9.1-21.1-3.2l22.8 12.4c.4.2.7.4 1.1.6l-.6-.3c6 3.1 12.8 4 20.5 3 31.599-4.4 49.099-38.4 49.199-114.4.1-57.5-9.7-89.1-28.3-99.2Z"/><path fill="#636363" stroke="#636363" stroke-linecap="round" stroke-linejoin="round" stroke-miterlimit="10" stroke-width="2" d="M1028.8 417.6c-.9-.5-1.9-1-2.8-1.5 0 0-.1 0-.1-.1-1.1-.6-2.3-1.1-3.5-1.6-.2-.1-.5-.2-.7-.3-.9-.4-1.9-.8-2.8-1.1-.4-.2-.9-.3-1.3-.5-.8-.3-1.6-.5-2.4-.8-.5-.2-1-.3-1.5-.4-.8-.2-1.5-.4-2.3-.6-.3-.1-.5-.1-.8-.2-.4-.1-.9-.2-1.3-.3-.2-.1-.4-.1-.6-.2-1-.2-2.1-.5-3.1-.7-.2 0-.5-.1-.7-.1-.9-.2-1.8-.3-2.8-.5-.2 0-.4-.1-.6-.1-1.1-.2-2.1-.3-3.2-.4-.2 0-.5-.1-.7-.1-1-.1-1.9-.2-2.9-.3h-.5c-1.1-.1-2.2-.1-3.4-.2h-4.3c-1.1 0-2.3 0-3.5.1h-.8c-1.1.1-2.2.1-3.3.2h-.3l-3.6.3c-.3 0-.6.1-.9.1-1.2.1-2.4.3-3.7.5-1.4.2-2.7.4-4.1.6-.4.1-.7.1-1.1.2-1.1.2-2.3.4-3.4.7-.2 0-.4.1-.7.1l-3.9.9c-.3.1-.6.2-1 .3-1 .3-2.1.6-3.1.8l-.9.3c-1.3.4-2.5.8-3.8 1.2-.2.1-.5.2-.7.3-1 .4-2.1.7-3.1 1.1-.3.1-.7.2-1 .4-1.2.5-2.4.9-3.6 1.5-.1 0-.2.1-.3.1l-3.3 1.5c-.2.1-.3.1-.5.2s-.3.2-.5.2l-3.6 1.8h-.1c-1.2.6-2.4 1.3-3.6 2-.3.2-.6.3-.9.5-1.2.7-2.4 1.4-3.5 2.1-1.1.7-2.3 1.5-3.4 2.2-.1.1-.3.2-.4.3-.2.1-.3.2-.5.4-.6.4-1.2.8-1.8 1.3-.3.2-.7.5-1 .7-.7.5-1.3 1-1.9 1.5-.2.2-.5.4-.7.6-.9.7-1.8 1.4-2.6 2.1-.2.1-.3.3-.5.4l-2.1 1.8c-.1.1-.2.1-.2.2-.3.2-.5.5-.7.7-.5.4-.9.8-1.4 1.3l-1 1-1.3 1.3-1 1-1.3 1.3c-.3.4-.7.7-1 1.1-.4.5-.8.9-1.2 1.4-.2.2-.4.4-.5.6-.1.2-.3.3-.4.5-.4.5-.9 1-1.3 1.5-.3.4-.6.7-.9 1.1-.4.5-.9 1.1-1.3 1.6-.3.4-.6.7-.8 1.1-.5.6-.9 1.2-1.4 1.8-.2.3-.5.6-.7.9-.6.8-1.2 1.6-1.7 2.4-.1.1-.2.2-.3.4-.7 1-1.4 2.1-2.1 3.1-.2.3-.4.6-.6 1-.5.8-1 1.5-1.5 2.3-.2.4-.5.8-.7 1.2-.5.8-.9 1.5-1.4 2.3-.2.4-.4.7-.6 1.1-.6 1-1.2 2.1-1.8 3.2 0 .1-.1.2-.1.2-.8 1.5-1.6 3-2.4 4.6-.2.3-.3.6-.5.9-.7 1.5-1.5 3.1-2.2 4.6-.1.3-.3.6-.4.9-.7 1.6-1.4 3.1-2 4.7 0 .1-.1.2-.1.3-.7 1.7-1.3 3.4-2 5.1-.1.2-.1.4-.2.6-.1.2-.1.4-.2.6-.4 1.2-.9 2.5-1.3 3.7-.1.2-.1.4-.2.6-.5 1.4-1 2.9-1.4 4.4-.1.4-.2.8-.4 1.2-.3 1.1-.7 2.3-1 3.4-.1.5-.3.9-.4 1.4-.4 1.3-.7 2.7-1.1 4.1 0 .2-.1.4-.1.6-.4 1.6-.8 3.1-1.1 4.7-.1.4-.2.9-.3 1.3-.3 1.2-.5 2.4-.8 3.6l-.3 1.5-.9 4.5c0 .2-.1.3-.1.5l-.9 5.1c-.1.5-.2 1-.2 1.5l-.6 3.9c-.1.5-.1 1-.2 1.6-.2 1.6-.4 3.3-.6 4.9v.4l-.6 5.4c-.1.5-.1 1-.1 1.6-.1 1.4-.2 2.7-.3 4.1 0 .6-.1 1.1-.1 1.7-.1 1.8-.3 3.6-.4 5.4v.2l-.3 5.7c0 .6 0 1.1-.1 1.7 0 1.4-.1 2.9-.1 4.3v1.7c0 2-.1 3.9-.1 5.9-.1 69.7 20.5 115.2 55.2 134.1l22.8 12.4c-34.7-18.9-55.3-64.3-55.2-134.1 0-2 0-4 .1-5.9v-1.7c0-1.5.1-2.9.1-4.3 0-.6 0-1.1.1-1.7l.3-5.7v-.2c.1-1.8.2-3.6.4-5.4 0-.6.1-1.1.1-1.7.1-1.4.2-2.7.3-4.1 0-.5.1-1.1.1-1.6l.6-5.4v-.4c.2-1.7.4-3.3.6-4.9.1-.5.1-1 .2-1.6l.6-3.9c.1-.5.1-1 .2-1.5.3-1.7.6-3.4.9-5 0-.2.1-.3.1-.5l.9-4.5.3-1.5c.3-1.2.5-2.4.8-3.6.1-.4.2-.9.3-1.3.4-1.6.7-3.2 1.1-4.7 0-.2.1-.4.2-.6.4-1.4.7-2.7 1.1-4.1.1-.5.3-.9.4-1.4.3-1.1.7-2.3 1-3.4.1-.4.2-.8.4-1.2.5-1.5.9-2.9 1.4-4.4.1-.2.1-.4.2-.6.4-1.2.9-2.5 1.3-3.7.1-.4.3-.8.4-1.1.6-1.7 1.3-3.4 1.9-5.1 0-.1.1-.2.1-.3.6-1.6 1.3-3.2 2-4.7.1-.3.3-.6.4-.9.7-1.6 1.4-3.1 2.2-4.6.1-.3.3-.6.5-.9.8-1.6 1.5-3.1 2.4-4.6 0-.1.1-.2.1-.3.6-1.1 1.2-2.1 1.8-3.2.2-.4.4-.7.6-1.1.5-.8.9-1.6 1.4-2.3.2-.4.5-.8.7-1.1.5-.8 1-1.5 1.5-2.3.2-.3.4-.7.6-1 .7-1.1 1.4-2.1 2.1-3.1.1-.1.2-.3.3-.4.6-.8 1.2-1.6 1.7-2.4.2-.3.5-.6.7-1 .5-.6.9-1.2 1.4-1.8.3-.4.6-.7.8-1.1.4-.5.9-1.1 1.3-1.6.3-.4.6-.7.9-1.1.4-.5.9-1 1.3-1.5.3-.4.6-.7 1-1.1.4-.5.8-.9 1.2-1.4.3-.4.7-.7 1-1.1.4-.4.8-.9 1.3-1.3l1-1 1.3-1.3 1-1c.5-.4.9-.9 1.4-1.3.3-.3.7-.6 1-.9l2.1-1.8c.2-.1.3-.3.5-.4.9-.7 1.7-1.4 2.6-2.1.2-.2.5-.4.7-.6.6-.5 1.3-1 1.9-1.5.3-.2.7-.5 1-.7.6-.4 1.2-.8 1.8-1.3.3-.2.6-.4.9-.7 1.1-.8 2.3-1.5 3.4-2.2 1.2-.7 2.3-1.4 3.5-2.1.3-.2.6-.3.9-.5 1.2-.7 2.4-1.3 3.6-2h.1l3.6-1.8c.3-.1.6-.3.9-.4l3.3-1.5c.1 0 .2-.1.3-.1l3.6-1.5c.3-.1.7-.2 1-.4 1-.4 2-.7 3.1-1.1.2-.1.5-.2.7-.3 1.2-.4 2.5-.8 3.8-1.2l.9-.3c1-.3 2.1-.6 3.1-.8.3-.1.6-.2 1-.2l3.9-.9c.2 0 .4-.1.7-.1 1.1-.2 2.3-.5 3.4-.7.4-.1.7-.1 1.1-.2 1.3-.2 2.7-.5 4.1-.6 1.2-.2 2.5-.3 3.7-.5.3 0 .6-.1.9-.1l3.6-.3h.3c1.1-.1 2.2-.1 3.3-.2h.8c1.2 0 2.3-.1 3.5-.1h4.3c1.1 0 2.2.1 3.3.2h.5c1 .1 2 .2 2.9.3.3 0 .5 0 .8.1 1.1.1 2.2.3 3.2.4.2 0 .4.1.6.1.9.1 1.9.3 2.8.5.2 0 .5.1.7.1 1 .2 2.1.4 3.1.7.2 0 .4.1.6.2.7.2 1.4.3 2.1.5.8.2 1.5.4 2.3.6.5.1 1 .3 1.5.4.8.3 1.6.5 2.3.8.4.2.9.3 1.3.5.9.4 1.9.7 2.8 1.1.3.1.5.2.8.3 1.2.5 2.3 1 3.5 1.6l3 1.5-23-12.5Z"/><path fill="#fff" stroke="#636363" stroke-linecap="round" stroke-linejoin="round" stroke-miterlimit="10" stroke-width="2" d="M993.2 421.3c68-9.6 112.9 37 112.7 144.5-.2 102.3-44.8 164.9-113.301 174.5-68 9.6-112.5-40.6-112.3-142.8.2-106.2 44.501-166.6 112.901-176.2Zm-.101 267.9c31.601-4.4 49.101-38.4 49.201-114.4.1-76.1-17.2-106.8-49.201-102.3-32.4 4.6-49.099 38.8-49.199 116.2-.1 75.5 17.599 104.9 49.199 100.5Z"/><path fill="#636363" stroke="#636363" stroke-linecap="round" stroke-linejoin="round" stroke-miterlimit="10" stroke-width="2" d="m760.4 493.3-2.2 61.9-.1 77 22.8 12.4.1-77 2.2-61.9-22.8-12.4ZM870.799 632c.1 0 .3 0 .4.1.3.1.5.2.8.3l-22.9-12.4c-.2-.1-.4-.2-.6-.2h-.1c-.1 0-.3 0-.4-.1h-.8l-27.5 3.9 22.8 12.4 27.5-4h.8Zm-90.101 128 .1-66-22.8-12.4-.1 66c0 1.4.7 2.5 1.7 3.1l22.8 12.4c-1.1-.6-1.7-1.7-1.7-3.1Zm-78-104.4-22.8-12.4 78.2-11 22.8 12.4-78.2 11Z"/><path fill="#fff" stroke="#636363" stroke-linecap="round" stroke-linejoin="round" stroke-miterlimit="10" stroke-width="2" d="M870 632c2-.3 3.6 1.2 3.6 3.4l-.1 41.5c0 2.2-1.6 4.2-3.7 4.4l-27.5 3.9-.1 66c0 2.2-1.6 4.2-3.7 4.4l-54.3 7.6c-2 .3-3.6-1.2-3.6-3.4l.1-66-123.1 17.3c-2 .3-3.6-1.2-3.6-3.4l.1-48.5c0-2.2.8-5.4 2-7.7l103.2-187.6c1.2-2.3 3.7-4 5.7-4.3l74.1-10.4c2-.3 3.6 1.2 3.6 3.4l-.3 183.1L870 632Zm-89-64.4 2.1-61.9-80.4 149.8 78.2-11 .1-76.9Z"/><path fill="#636363" stroke="#636363" stroke-linecap="round" stroke-linejoin="round" stroke-miterlimit="10" stroke-width="2" d="m653.999 707.8.1-48.5-22.8-12.4-.1 48.5c0 1.4.7 2.5 1.7 3.1l22.8 12.4c-1-.5-1.7-1.7-1.7-3.1Zm164.299-270.5c-.6-.3-1.2-.4-2-.3l-74.1 10.4c-.3 0-.5.1-.8.2-.1 0-.2.1-.3.1-.2.1-.4.1-.6.2h-.1l-.6.3c-.2.1-.4.2-.6.4 0 0-.1 0-.1.1-.2.2-.5.3-.7.5l-.1.1c-.2.2-.4.3-.5.5l-.2.2c0 .1-.1.1-.1.2-.2.2-.3.4-.4.6-.1.1-.1.2-.2.3-.1.2-.2.3-.3.5 0 0 0 .1-.1.1l-103.1 187.5c-1.2 2.3-2 5.5-2 7.7l22.8 12.4c0-2.2.8-5.4 2-7.7l103.2-187.6c.1-.2.2-.4.4-.6.1-.1.1-.2.2-.3.1-.2.3-.4.5-.6 0-.1.1-.1.1-.2l.2-.2c.2-.2.3-.4.5-.5.1 0 .1-.1.2-.1.2-.2.4-.4.7-.5.2-.2.4-.3.6-.4.2-.1.5-.2.7-.3.2-.1.4-.2.6-.2.1 0 .2-.1.3-.1.3-.1.6-.2.8-.2l74.1-10.4c.7-.1 1.4 0 2 .3l-23-12.4Z"/></svg>